<svg id="Filled" xmlns="http://www.w3.org/2000/svg" viewBox="0 0 64 64"><defs><style>.cls-1{fill:#fff;}.cls-2{fill:#bdbdbd;}.cls-3{fill:#df693d;}.cls-4{fill:#eee;}.cls-5{fill:#263238;}</style></defs><path class="cls-1" d="M61.11,25.47a2.79,2.79,0,0,1-.28.32l-6.56,6.56L42.65,44A100.33,100.33,0,0,1,30.43,33.57,99.29,99.29,0,0,1,20,21.35L23.4,18l1.74-1.74L28.35,13,32,9.4l6.23-6.23a4,4,0,0,1,5.65,0l17,17A4,4,0,0,1,61.11,25.47Z"/><path class="cls-2" d="M20.36,38.87l3-2.47L17.47,26.27a2,2,0,0,1,.21-2.58L20,21.35A99.29,99.29,0,0,0,30.43,33.57,100.33,100.33,0,0,0,42.65,44l-2.34,2.34a2,2,0,0,1-2.58.21l-10-5.83A4.3,4.3,0,0,1,23,42,4.5,4.5,0,0,1,20.36,38.87Z"/><circle class="cls-3" cx="53" cy="54" r="8"/><path class="cls-1" d="M30.41,44.46l-4.24-4.24L26,40,16,38,7.26,41.74l-5,2.15L2,44V62l4.39-3.21L11.57,55H16a3.25,3.25,0,0,0,1.2,2.38l0,0c.91.67,2.41,0,2.64-.11A4.29,4.29,0,0,0,22,55a4.1,4.1,0,0,0,.26-1.72l.38.38a2,2,0,0,0,2.82-2.83A2,2,0,0,0,28.29,48l-.7-.71a2,2,0,0,0,2.82,0h0A2,2,0,0,0,30.41,44.46Z"/><path class="cls-2" d="M11.94,55h-.37l-5.18,3.8L2.25,43.89l5-2.15Z"/><path class="cls-4" d="M61.11,25.47a2.79,2.79,0,0,1-.28.32l-6.56,6.56a67.59,67.59,0,0,1-7.78-2.08,49.08,49.08,0,0,1-18.6-10.95,28.9,28.9,0,0,1-2.75-3.08L28.35,13a59.72,59.72,0,0,0,16.84,9.23,59.63,59.63,0,0,0,8.31,2.25A57.35,57.35,0,0,0,61.11,25.47Z"/><path class="cls-5" d="M61.36,26.32h0a3.41,3.41,0,0,0,.36-.41.06.06,0,0,0,0,0,4.7,4.7,0,0,0-.37-6.26l-17-17A4.67,4.67,0,0,0,41,1.25h0a4.67,4.67,0,0,0-3.35,1.39L19.49,20.82h0l-2.34,2.34a2.75,2.75,0,0,0-.33,3.49l5.57,9.58-2.23,1.84L18,37.63A6.71,6.71,0,0,0,14,38l-1.23.53L7,41.05,2,43.2l-.12,0-.17.08a.72.72,0,0,0,0,1.28L5.53,58.49l-4,2.9a.75.75,0,0,0-.17,1,.77.77,0,0,0,.61.31.79.79,0,0,0,.44-.14l4.37-3.2,0,0,5-3.65h3.53A3.81,3.81,0,0,0,16.75,58l.05,0c.79.58,2,.57,3.38,0a5,5,0,0,0,2.52-2.7c.07-.19.1-.38.15-.57a2.69,2.69,0,0,0,1.2.29,2.72,2.72,0,0,0,2.74-2.83h.09a2.75,2.75,0,0,0,2.75-2.75,3,3,0,0,0-.14-.83,2.63,2.63,0,0,0,1.45-.76,2.74,2.74,0,0,0,0-3.88L29.82,42.8l7.47,4.34a2.77,2.77,0,0,0,3.55-.29l2.34-2.34L61.36,26.32ZM28.41,14A60.3,60.3,0,0,0,44.94,23a61.1,61.1,0,0,0,8.42,2.28,58.88,58.88,0,0,0,6.1.85L54,31.53a67.37,67.37,0,0,1-7.3-2A47.86,47.86,0,0,1,28.42,18.78a27.17,27.17,0,0,1-2.28-2.48ZM38.74,3.7a3.32,3.32,0,0,1,4.59,0l17,17a3.24,3.24,0,0,1,.45,4,56.19,56.19,0,0,1-7.11-.92,58.32,58.32,0,0,1-8.2-2.22A58.46,58.46,0,0,1,29.49,13ZM23.93,18.51l1.16-1.16a28.92,28.92,0,0,0,2.28,2.51A49.31,49.31,0,0,0,46.25,31c2.11.7,4.3,1.3,6.53,1.81L42.58,43,41,41.78l-1.24-.94c-.64-.51-1.28-1-1.91-1.57l-1.12-.91c-.68-.59-1.34-1.19-2-1.79-.3-.28-.62-.54-.92-.82-1-.89-1.9-1.79-2.82-2.71s-1.82-1.86-2.71-2.81l-.82-.93c-.6-.66-1.2-1.32-1.78-2-.33-.38-.64-.78-1-1.17-.51-.61-1-1.23-1.52-1.86-.34-.42-.66-.86-1-1.3s-.79-1-1.17-1.55l2.92-2.91ZM3.15,44.32l3.67-1.57L11,54.5l-.45.33-3.7,2.71Zm27.1,1.56a1.22,1.22,0,0,1-.37.88,1.24,1.24,0,0,1-1.76,0l-4.25-4.24a.75.75,0,1,0-1.06,1.06l.71.71h0l4.24,4.24a1.24,1.24,0,0,1,0,1.77,1.27,1.27,0,0,1-1.76,0l-4.25-4.24a.74.74,0,0,0-1.06,0,.75.75,0,0,0,0,1.06l4.24,4.24a1.25,1.25,0,1,1-1.76,1.77l-4.25-4.25a.75.75,0,1,0-1.06,1.06l3.64,3.64a3.16,3.16,0,0,1-.2,1.15,3.49,3.49,0,0,1-1.75,1.88,2.16,2.16,0,0,1-1.87.19h0l0,0a2.31,2.31,0,0,1-.82-1.34l1.52-.78a.75.75,0,1,0-.68-1.34l-1.84.94H12.47L8.2,42.15,13.35,40l1.23-.53a5.23,5.23,0,0,1,3.1-.32l7,1.4a3.15,3.15,0,0,1,1.68.9L29.88,45A1.2,1.2,0,0,1,30.25,45.88Zm9.53-.09a1.28,1.28,0,0,1-1.67.09l-10-5.83a.74.74,0,0,0-.89.12A4.67,4.67,0,0,0,25,39l-2.89-.57L23.84,37A.77.77,0,0,0,24,36L18.08,25.83a1.25,1.25,0,0,1,.13-1.61l1.72-1.72c.35.48.72.94,1.08,1.41s.69.92,1,1.37c.49.61,1,1.21,1.49,1.81.34.41.67.83,1,1.23.58.67,1.17,1.33,1.76,2,.29.32.57.65.86,1,.89,1,1.8,1.92,2.73,2.84s1.88,1.84,2.84,2.73c.33.31.67.6,1,.9.64.58,1.28,1.16,1.94,1.72.41.35.83.69,1.25,1,.59.5,1.18,1,1.79,1.47.45.36.91.7,1.36,1l1.41,1.08Z"/><path class="cls-5" d="M53,45.25A8.75,8.75,0,1,0,61.75,54,8.75,8.75,0,0,0,53,45.25Zm0,16A7.25,7.25,0,1,1,60.25,54,7.26,7.26,0,0,1,53,61.25Z"/><circle class="cls-1" cx="55" cy="56" r="1"/><circle class="cls-1" cx="50" cy="55" r="1"/><circle class="cls-1" cx="54" cy="51" r="1"/><path class="cls-5" d="M9.66,2.74A24.61,24.61,0,0,1,16.71,5a24.59,24.59,0,0,1,7.18,5.35.78.78,0,0,0,.55.23.73.73,0,0,0,.51-.2.75.75,0,0,0,0-1.06,26.59,26.59,0,0,0-7.61-5.67A26.34,26.34,0,0,0,9.9,1.26a.75.75,0,0,0-.24,1.48Z"/><path class="cls-5" d="M8.76,13.21a18.39,18.39,0,0,1,2.16.89,16.76,16.76,0,0,1,4.85,3.63.75.75,0,0,0,.55.24.78.78,0,0,0,.51-.2.76.76,0,0,0,0-1.06,18.39,18.39,0,0,0-5.29-4,20.77,20.77,0,0,0-2.34-1,.75.75,0,0,0-.48,1.42Z"/><path class="cls-5" d="M9.2,8.13a20.77,20.77,0,0,1,4.41,1.59,20.7,20.7,0,0,1,6,4.49.75.75,0,0,0,.55.24.78.78,0,0,0,.51-.2.76.76,0,0,0,0-1.06A22.34,22.34,0,0,0,9.55,6.67a.75.75,0,0,0-.9.56A.74.74,0,0,0,9.2,8.13Z"/></svg>