<svg id="Filled" xmlns="http://www.w3.org/2000/svg" viewBox="0 0 64 64"><defs><style>.cls-1{fill:#fff;}.cls-2{fill:#eee;}.cls-3{fill:#df693d;}.cls-4{fill:#263238;}</style></defs><rect class="cls-1" x="30" y="10" width="4" height="52"/><rect class="cls-1" x="2" y="13" width="28" height="46"/><rect class="cls-1" x="34" y="13" width="28" height="46"/><rect class="cls-2" x="17" y="13" width="13" height="46"/><rect class="cls-3" x="34" y="13" width="13" height="46"/><path class="cls-4" d="M8,6.75A.76.76,0,0,0,8.75,6V4.75h46.5V6a.75.75,0,0,0,1.5,0V2a.75.75,0,0,0-1.5,0V3.25H8.75V2a.75.75,0,0,0-1.5,0V6A.76.76,0,0,0,8,6.75Z"/><path class="cls-4" d="M62,12.25H34.75V10A.76.76,0,0,0,34,9.25H30a.76.76,0,0,0-.75.75v2.25H2a.76.76,0,0,0-.75.75V59a.76.76,0,0,0,.75.75H29.25V62a.76.76,0,0,0,.75.75h4a.76.76,0,0,0,.75-.75V59.75H62a.76.76,0,0,0,.75-.75V13A.76.76,0,0,0,62,12.25Zm-.75,23H47.75V13.75h13.5Zm-45-21.5v21.5H2.75V13.75Zm-13.5,23h13.5v21.5H2.75Zm15,21.5V13.75h11.5v44.5Zm15.5,3h-2.5V10.75h2.5v50.5Zm1.5-3V13.75h11.5v44.5Zm13,0V36.75h13.5v21.5Z"/></svg>