<svg id="Filled" xmlns="http://www.w3.org/2000/svg" viewBox="0 0 64 64"><defs><style>.cls-1{fill:#fff;}.cls-2{fill:#eee;}.cls-3{fill:#bdbdbd;}.cls-4{fill:#df693d;}.cls-5{fill:#263238;}</style></defs><path class="cls-1" d="M34,7H4A2,2,0,0,0,2,9V51a2,2,0,0,0,2,2H56a2,2,0,0,0,2-2V18Z"/><path class="cls-2" d="M26,15.24V29.75a3,3,0,0,1-2.18,2.84L19,34.93l.8,10.19a2,2,0,0,1-2,2.15H16.19a2,2,0,0,1-2-2.15L15,34.93l-4.82-2.34A3,3,0,0,1,8,29.75V15.24a2,2,0,0,1,2-2H24A2,2,0,0,1,26,15.24Z"/><path class="cls-3" d="M26,28v1.71a3,3,0,0,1-2.18,2.84L19,34.93l.8,10.19a2,2,0,0,1-2,2.15H16.19a2,2,0,0,1-2-2.15L15,34.93l-4.82-2.34A3,3,0,0,1,8,29.75V28a40.73,40.73,0,0,0,9,1A41.09,41.09,0,0,0,26,28Z"/><rect class="cls-2" x="21" y="53" width="18" height="5"/><rect class="cls-3" x="16" y="58" width="28" height="4"/><path class="cls-4" d="M60,2H36a2,2,0,0,0-2,2V21l5-3H60a2,2,0,0,0,2-2V4A2,2,0,0,0,60,2Z"/><path class="cls-2" d="M36,27H60a2,2,0,0,1,2,2V46l-5-3H36a2,2,0,0,1-2-2V29A2,2,0,0,1,36,27Z"/><path class="cls-5" d="M24,12.52H10a2.74,2.74,0,0,0-2.75,2.72V29.75a3.72,3.72,0,0,0,2.66,3.54l4.3,2.09-.76,9.67a2.71,2.71,0,0,0,.7,2.07,2.76,2.76,0,0,0,2,.9h1.62a2.76,2.76,0,0,0,2-.9,2.7,2.7,0,0,0,.7-2.06l-.76-9.68,4.3-2.09a3.72,3.72,0,0,0,2.66-3.54V15.24A2.74,2.74,0,0,0,24,12.52ZM10,14H24a1.24,1.24,0,0,1,1.25,1.22V27.42a40.93,40.93,0,0,1-16.5,0V15.24A1.24,1.24,0,0,1,10,14Zm8.74,32.09a1.26,1.26,0,0,1-.93.41H16.19a1.26,1.26,0,0,1-.93-.41,1.13,1.13,0,0,1-.31-.93l.74-9.5h2.62l.74,9.51A1.12,1.12,0,0,1,18.74,46.11Zm4.88-14.24-.12.05-4.67,2.26H15.17L10.5,31.92l-.12-.05a2.22,2.22,0,0,1-1.63-2.12V29a41.29,41.29,0,0,0,8.25.83A41.29,41.29,0,0,0,25.25,29v.8A2.22,2.22,0,0,1,23.62,31.87Z"/><path class="cls-1" d="M39,7.75H57a.75.75,0,0,0,0-1.5H39a.75.75,0,0,0,0,1.5Z"/><path class="cls-1" d="M39,12.75H57a.75.75,0,0,0,0-1.5H39a.75.75,0,0,0,0,1.5Z"/><path class="cls-5" d="M60,18.75A2.75,2.75,0,0,0,62.75,16V4A2.75,2.75,0,0,0,60,1.25H36A2.75,2.75,0,0,0,33.25,4V6.25H4A2.75,2.75,0,0,0,1.25,9V51A2.75,2.75,0,0,0,4,53.75H20.25v3.5H16a.76.76,0,0,0-.75.75v4a.76.76,0,0,0,.75.75H44a.76.76,0,0,0,.75-.75V58a.76.76,0,0,0-.75-.75H39.75v-3.5H56A2.75,2.75,0,0,0,58.75,51V44.92l2.86,1.72a.79.79,0,0,0,.39.11.71.71,0,0,0,.37-.1.75.75,0,0,0,.38-.65V29A2.75,2.75,0,0,0,60,26.25H58.75v-7.5ZM34.75,4A1.25,1.25,0,0,1,36,2.75H60A1.25,1.25,0,0,1,61.25,4V16A1.25,1.25,0,0,1,60,17.25H39a.77.77,0,0,0-.39.11l-3.86,2.32Zm8.5,57.25H16.75v-2.5h26.5Zm-5-4H21.75v-3.5h16.5ZM61.25,29V44.68l-3.86-2.32a.77.77,0,0,0-.39-.11H36A1.25,1.25,0,0,1,34.75,41V29A1.25,1.25,0,0,1,36,27.75H60A1.25,1.25,0,0,1,61.25,29Zm-4-2.75H36A2.75,2.75,0,0,0,33.25,29V41A2.75,2.75,0,0,0,36,43.75H56.79l.46.27v7A1.25,1.25,0,0,1,56,52.25H4A1.25,1.25,0,0,1,2.75,51V9A1.25,1.25,0,0,1,4,7.75H33.25V21a.75.75,0,0,0,.38.65.71.71,0,0,0,.37.1.79.79,0,0,0,.39-.11l4.82-2.89h18Z"/><path class="cls-5" d="M57,31.25H39a.75.75,0,0,0,0,1.5H57a.75.75,0,0,0,0-1.5Z"/><path class="cls-5" d="M50,36.25H39a.75.75,0,0,0,0,1.5H50a.75.75,0,0,0,0-1.5Z"/><path class="cls-5" d="M57,36.25H55a.75.75,0,0,0,0,1.5h2a.75.75,0,0,0,0-1.5Z"/></svg>