<svg id="Filled" xmlns="http://www.w3.org/2000/svg" viewBox="0 0 64 64"><defs><style>.cls-1{fill:#bdbdbd;}.cls-2{fill:#eee;}.cls-3{fill:#fff;}.cls-4{fill:#df693d;}.cls-5{fill:#263238;}</style></defs><polygon class="cls-1" points="14.17 54.56 16 57 8 62 7 57 2 55 7.74 51.13 14.17 54.56"/><polygon class="cls-1" points="56.26 51.13 62 55 57 57 56 62 48 57 49.83 54.56 56.26 51.13"/><path class="cls-2" d="M32,62h0A47.73,47.73,0,0,0,62,17.69V11L32,2,2,11v6.69A47.73,47.73,0,0,0,32,62Z"/><path class="cls-3" d="M32,58.75A44.5,44.5,0,0,1,5,17.69V13.23l27-8.1,27,8.1v4.46A44.5,44.5,0,0,1,32,58.75Z"/><path class="cls-4" d="M38.72,48.61l-1.41,1a2.11,2.11,0,0,1-3.06-.71L32,45.05l-2.84-4.86-.51-.88L23,40.2A3.17,3.17,0,0,1,19.35,39l-1.69-2.44L10.38,26a2.17,2.17,0,0,1,.53-3l12.17-8.63a2.11,2.11,0,0,1,3,.52l6,8.63.53,3.11,2.31,13.54,4.28,5.27A2.16,2.16,0,0,1,38.72,48.61Z"/><path class="cls-2" d="M38.72,48.61l-1.41,1a2.11,2.11,0,0,1-3.06-.71L32,45.05l-2.84-4.86-.51-.88L23,40.2A3.17,3.17,0,0,1,19.35,39L18,37A29.44,29.44,0,0,0,32.53,26.65l2.31,13.54,4.28,5.27A2.16,2.16,0,0,1,38.72,48.61Z"/><path class="cls-4" d="M53.62,26,45.17,38.23l-.53.77A3.17,3.17,0,0,1,41,40.19l-5.64-.88-5.6,9.61a2.1,2.1,0,0,1-3.06.69l-1.41-1a2.17,2.17,0,0,1-.4-3.15l7-8.61-2.74-5.07A3.24,3.24,0,0,1,29,27.9l1-1.37,8-11.61a2.11,2.11,0,0,1,3-.53L53.09,23A2.18,2.18,0,0,1,53.62,26Z"/><polygon class="cls-1" points="10.35 44.66 5 48 12 56 17.15 52.57 10.35 44.66"/><polygon class="cls-1" points="46.85 52.57 49.83 54.56 52 56 56.26 51.13 59 48 53.65 44.66 46.85 52.57"/><path class="cls-2" d="M46,37l-1.36,2A3.17,3.17,0,0,1,41,40.19l-5.64-.88-5.6,9.61a2.1,2.1,0,0,1-3.06.69l-1.41-1a2.17,2.17,0,0,1-.4-3.15l7-8.61-2.74-5.07A3.24,3.24,0,0,1,29,27.9l1-1.37A30.15,30.15,0,0,0,46,37Z"/><path class="cls-5" d="M26.65,14.49a2.87,2.87,0,0,0-1.87-1.2,2.83,2.83,0,0,0-2.13.48L10.47,22.41a2.91,2.91,0,0,0-.7,4l9,13A4,4,0,0,0,22,41.12a3.81,3.81,0,0,0,1.2-.19l5.05-.79L24.3,45a2.9,2.9,0,0,0-.65,2.25,2.87,2.87,0,0,0,1.2,2l1.4,1a2.85,2.85,0,0,0,1.66.53,2.68,2.68,0,0,0,.62-.07A2.89,2.89,0,0,0,30.4,49.3L32,46.54l1.6,2.74a2.89,2.89,0,0,0,1.87,1.4,2.68,2.68,0,0,0,.62.07,2.86,2.86,0,0,0,1.65-.52l1.41-1a2.88,2.88,0,0,0,1.2-2A2.93,2.93,0,0,0,39.71,45l-3.94-4.85,5,.78a3.93,3.93,0,0,0,4.45-1.5l9-13a2.92,2.92,0,0,0-.7-4L41.35,13.78a2.8,2.8,0,0,0-2.14-.49,2.86,2.86,0,0,0-1.86,1.2L32,22.22ZM11.34,23.63,23.52,15a1.32,1.32,0,0,1,1-.23,1.39,1.39,0,0,1,.9.57l5.67,8.2-2.72,3.93a4,4,0,0,0-.5,3.53c-.51.4-1,.8-1.57,1.18a41.66,41.66,0,0,1-7.74,4.35L11,25.59A1.42,1.42,0,0,1,11.34,23.63Zm17.2,14.94-5.65.89a.5.5,0,0,0-.13,0A2.41,2.41,0,0,1,20,38.57l-.54-.78a43.62,43.62,0,0,0,7.74-4.38c.48-.34.94-.71,1.41-1.07L31,36.76l-1.72,2.12A.73.73,0,0,0,28.54,38.57Zm.56,10a1.42,1.42,0,0,1-.9.67A1.38,1.38,0,0,1,27.12,49l-1.41-1a1.42,1.42,0,0,1-.25-2.06l4.29-5.29,0,0L32,37.86l2.35,1.67ZM38.86,47a1.38,1.38,0,0,1-.57,1l-1.41,1a1.34,1.34,0,0,1-1.08.22,1.4,1.4,0,0,1-.9-.68l-2-3.49,2.07-3.55,3.61,4.44A1.41,1.41,0,0,1,38.86,47Zm2.38-7.55-.13,0-5.47-.85-3.19-2.26-2.67-4.92a.41.41,0,0,0-.07-.11,2.51,2.51,0,0,1-.1-3l.53-.77a43.49,43.49,0,0,0,6.69,5.86,42.61,42.61,0,0,0,7.74,4.37l-.54.79A2.44,2.44,0,0,1,41.24,39.49ZM38.58,15.35a1.38,1.38,0,0,1,.89-.58l.23,0a1.42,1.42,0,0,1,.79.25l12.17,8.63a1.42,1.42,0,0,1,.34,2L45.44,36.53a40.78,40.78,0,0,1-7.74-4.35A41.3,41.3,0,0,1,31,26.29Z"/><path class="cls-5" d="M62.75,11a.76.76,0,0,0-.53-.72l-30-9a.82.82,0,0,0-.44,0l-30,9a.76.76,0,0,0-.53.72v6.69a48.45,48.45,0,0,0,8,26.77L4.6,47.36a.77.77,0,0,0-.34.53.73.73,0,0,0,.18.6L6.61,51l-5,3.4a.74.74,0,0,0-.33.7.76.76,0,0,0,.47.62l4.62,1.85.92,4.6a.78.78,0,0,0,.44.54.78.78,0,0,0,.7,0l8-5a.79.79,0,0,0,.34-.5.73.73,0,0,0-.14-.59l-1.36-1.81,1.81-1.2A48.92,48.92,0,0,0,31.72,62.7a.81.81,0,0,0,.56,0A48.92,48.92,0,0,0,47,53.54l1.81,1.2L47.4,56.55a.73.73,0,0,0-.14.59.79.79,0,0,0,.34.5l8,5a.78.78,0,0,0,.7,0,.78.78,0,0,0,.44-.54l.92-4.6,4.62-1.85a.76.76,0,0,0,.47-.62.74.74,0,0,0-.33-.7l-5-3.4,2.17-2.49a.73.73,0,0,0,.18-.6.77.77,0,0,0-.34-.53l-4.66-2.9a48.45,48.45,0,0,0,8-26.77ZM14.91,56.8l-6.39,4-.78-3.94a.78.78,0,0,0-.46-.55L3.59,54.83l4-2.71,3.83,4.37a.73.73,0,0,0,.56.26.74.74,0,0,0,.42-.13l1.57-1ZM12.13,55l-6-6.84,4-2.48a47.65,47.65,0,0,0,5.82,6.79Zm48.28-.18L56.72,56.3a.78.78,0,0,0-.46.55l-.78,3.94-6.39-4L50,55.57l1.57,1a.74.74,0,0,0,.42.13.73.73,0,0,0,.56-.26l3.83-4.37Zm-2.56-6.66-6,6.84-3.8-2.53a47.65,47.65,0,0,0,5.82-6.79Zm3.4-30.48a47,47,0,0,1-8,26.38.69.69,0,0,0-.19.19l0,.15a46.24,46.24,0,0,1-6.47,7.51.72.72,0,0,0-.26.23v0a47,47,0,0,1-14.22,9,47,47,0,0,1-14.22-9v0a.72.72,0,0,0-.26-.23A46.24,46.24,0,0,1,11,44.41s0-.1,0-.15a.69.69,0,0,0-.19-.19,47,47,0,0,1-8-26.38V11.56L32,2.78l29.25,8.78Z"/><path class="cls-5" d="M31.78,4.41l-27,8.1a.76.76,0,0,0-.53.72v4.46A45.42,45.42,0,0,0,31.7,59.44a.78.78,0,0,0,.6,0A45.42,45.42,0,0,0,59.75,17.69V13.23a.76.76,0,0,0-.53-.72l-27-8.1A.82.82,0,0,0,31.78,4.41Zm26.47,9.38v3.9A43.9,43.9,0,0,1,32,57.93,43.9,43.9,0,0,1,5.75,17.69v-3.9L32,5.92Z"/></svg>